<svg width="11" height="18" xmlns="http://www.w3.org/2000/svg"><path d="M7.383 4.685l-.112.017c-.002 8.682-6.583 12.3-6.583 12.3-.13.079-.144.221-.035.323.118.097.314.11.443.03.001-.002 6.567-3.73 6.287-12.67zM.745 17.41C.734 17.4.711 17.388.7 17.366c-.011-.011-.034-.023-.045-.034l.09.079zm4.719-3.55c3.287 1.188 4.067-1.699 4.067-1.699-3.223-.863-4.067 1.698-4.067 1.698zm1.429-2.973s2.486 1.026 3.734-2.516c0 0-3.101-.922-3.734 2.516zm1.12-3.358s3.09-.504 2.299-4.32c.002 0-2.828 1.002-2.3 4.32zM7.333.557s-1.996 1.088.057 3.985c0 0 2.05-2.063-.058-3.985zM4.345 13.11s.903-2.718-1.995-4.388c.002 0-1.125 3.688 1.995 4.388zm1.33-2.793s.85-3.087-2.276-4c0-.001.165 3.819 2.277 4zm.85-3.217s.67-2.306-1.978-3.428c-.002 0-.61 2.602 1.978 3.428z" fill="#FAAD14" fill-rule="nonzero"/></svg>